<svg width="183" height="45" viewBox="0 0 183 45" fill="none" xmlns="http://www.w3.org/2000/svg">
<rect y="7" width="60" height="29" fill="#FF8A4C"/>
<path d="M63.91 28.26C65.83 26.66 67.36 25.33 68.5 24.27C69.64 23.19 70.59 22.07 71.35 20.91C72.11 19.75 72.49 18.61 72.49 17.49C72.49 16.47 72.25 15.67 71.77 15.09C71.29 14.51 70.55 14.22 69.55 14.22C68.55 14.22 67.78 14.56 67.24 15.24C66.7 15.9 66.42 16.81 66.4 17.97H62.32C62.4 15.57 63.11 13.75 64.45 12.51C65.81 11.27 67.53 10.65 69.61 10.65C71.89 10.65 73.64 11.26 74.86 12.48C76.08 13.68 76.69 15.27 76.69 17.25C76.69 18.81 76.27 20.3 75.43 21.72C74.59 23.14 73.63 24.38 72.55 25.44C71.47 26.48 70.06 27.74 68.32 29.22H77.17V32.7H62.35V29.58L63.91 28.26ZM79.2166 24.63C79.2166 22.95 79.5466 21.46 80.2066 20.16C80.8866 18.86 81.7966 17.86 82.9366 17.16C84.0966 16.46 85.3866 16.11 86.8066 16.11C88.0466 16.11 89.1266 16.36 90.0466 16.86C90.9866 17.36 91.7366 17.99 92.2966 18.75V16.38H96.5266V33H92.2966V30.57C91.7566 31.35 91.0066 32 90.0466 32.52C89.1066 33.02 88.0166 33.27 86.7766 33.27C85.3766 33.27 84.0966 32.91 82.9366 32.19C81.7966 31.47 80.8866 30.46 80.2066 29.16C79.5466 27.84 79.2166 26.33 79.2166 24.63ZM92.2966 24.69C92.2966 23.67 92.0966 22.8 91.6966 22.08C91.2966 21.34 90.7566 20.78 90.0766 20.4C89.3966 20 88.6666 19.8 87.8866 19.8C87.1066 19.8 86.3866 19.99 85.7266 20.37C85.0666 20.75 84.5266 21.31 84.1066 22.05C83.7066 22.77 83.5066 23.63 83.5066 24.63C83.5066 25.63 83.7066 26.51 84.1066 27.27C84.5266 28.01 85.0666 28.58 85.7266 28.98C86.4066 29.38 87.1266 29.58 87.8866 29.58C88.6666 29.58 89.3966 29.39 90.0766 29.01C90.7566 28.61 91.2966 28.05 91.6966 27.33C92.0966 26.59 92.2966 25.71 92.2966 24.69ZM102.759 14.4C102.019 14.4 101.399 14.17 100.899 13.71C100.419 13.23 100.179 12.64 100.179 11.94C100.179 11.24 100.419 10.66 100.899 10.2C101.399 9.72 102.019 9.48 102.759 9.48C103.499 9.48 104.109 9.72 104.589 10.2C105.089 10.66 105.339 11.24 105.339 11.94C105.339 12.64 105.089 13.23 104.589 13.71C104.109 14.17 103.499 14.4 102.759 14.4ZM104.829 16.38V33H100.629V16.38H104.829ZM113.178 18.96C113.718 18.08 114.418 17.39 115.278 16.89C116.158 16.39 117.158 16.14 118.278 16.14V20.55H117.168C115.848 20.55 114.848 20.86 114.168 21.48C113.508 22.1 113.178 23.18 113.178 24.72V33H108.978V16.38H113.178V18.96ZM125.307 18.78C125.847 18.02 126.587 17.39 127.527 16.89C128.487 16.37 129.577 16.11 130.797 16.11C132.217 16.11 133.497 16.46 134.637 17.16C135.797 17.86 136.707 18.86 137.367 20.16C138.047 21.44 138.387 22.93 138.387 24.63C138.387 26.33 138.047 27.84 137.367 29.16C136.707 30.46 135.797 31.47 134.637 32.19C133.497 32.91 132.217 33.27 130.797 33.27C129.577 33.27 128.497 33.02 127.557 32.52C126.637 32.02 125.887 31.39 125.307 30.63V40.92H121.107V16.38H125.307V18.78ZM134.097 24.63C134.097 23.63 133.887 22.77 133.467 22.05C133.067 21.31 132.527 20.75 131.847 20.37C131.187 19.99 130.467 19.8 129.687 19.8C128.927 19.8 128.207 20 127.527 20.4C126.867 20.78 126.327 21.34 125.907 22.08C125.507 22.82 125.307 23.69 125.307 24.69C125.307 25.69 125.507 26.56 125.907 27.3C126.327 28.04 126.867 28.61 127.527 29.01C128.207 29.39 128.927 29.58 129.687 29.58C130.467 29.58 131.187 29.38 131.847 28.98C132.527 28.58 133.067 28.01 133.467 27.27C133.887 26.53 134.097 25.65 134.097 24.63ZM148.819 33.27C147.219 33.27 145.779 32.92 144.499 32.22C143.219 31.5 142.209 30.49 141.469 29.19C140.749 27.89 140.389 26.39 140.389 24.69C140.389 22.99 140.759 21.49 141.499 20.19C142.259 18.89 143.289 17.89 144.589 17.19C145.889 16.47 147.339 16.11 148.939 16.11C150.539 16.11 151.989 16.47 153.289 17.19C154.589 17.89 155.609 18.89 156.349 20.19C157.109 21.49 157.489 22.99 157.489 24.69C157.489 26.39 157.099 27.89 156.319 29.19C155.559 30.49 154.519 31.5 153.199 32.22C151.899 32.92 150.439 33.27 148.819 33.27ZM148.819 29.61C149.579 29.61 150.289 29.43 150.949 29.07C151.629 28.69 152.169 28.13 152.569 27.39C152.969 26.65 153.169 25.75 153.169 24.69C153.169 23.11 152.749 21.9 151.909 21.06C151.089 20.2 150.079 19.77 148.879 19.77C147.679 19.77 146.669 20.2 145.849 21.06C145.049 21.9 144.649 23.11 144.649 24.69C144.649 26.27 145.039 27.49 145.819 28.35C146.619 29.19 147.619 29.61 148.819 29.61ZM164.77 18.96C165.31 18.08 166.01 17.39 166.87 16.89C167.75 16.39 168.75 16.14 169.87 16.14V20.55H168.76C167.44 20.55 166.44 20.86 165.76 21.48C165.1 22.1 164.77 23.18 164.77 24.72V33H160.57V16.38H164.77V18.96ZM177.589 19.83V27.87C177.589 28.43 177.719 28.84 177.979 29.1C178.259 29.34 178.719 29.46 179.359 29.46H181.309V33H178.669C175.129 33 173.359 31.28 173.359 27.84V19.83H171.379V16.38H173.359V12.27H177.589V16.38H181.309V19.83H177.589Z" fill="#1F2937"/>
<path d="M8.96 19.83V27.87C8.96 28.43 9.09 28.84 9.35 29.1C9.63 29.34 10.09 29.46 10.73 29.46H12.68V33H10.04C6.5 33 4.73 31.28 4.73 27.84V19.83H2.75V16.38H4.73V12.27H8.96V16.38H12.68V19.83H8.96Z" fill="#1F2937"/>
<path d="M14.6209 24.63C14.6209 22.95 14.9509 21.46 15.6109 20.16C16.2909 18.86 17.2009 17.86 18.3409 17.16C19.5009 16.46 20.7909 16.11 22.2109 16.11C23.4509 16.11 24.5309 16.36 25.4509 16.86C26.3909 17.36 27.1409 17.99 27.7009 18.75V16.38H31.9309V33H27.7009V30.57C27.1609 31.35 26.4109 32 25.4509 32.52C24.5109 33.02 23.4209 33.27 22.1809 33.27C20.7809 33.27 19.5009 32.91 18.3409 32.19C17.2009 31.47 16.2909 30.46 15.6109 29.16C14.9509 27.84 14.6209 26.33 14.6209 24.63ZM27.7009 24.69C27.7009 23.67 27.5009 22.8 27.1009 22.08C26.7009 21.34 26.1609 20.78 25.4809 20.4C24.8009 20 24.0709 19.8 23.2909 19.8C22.5109 19.8 21.7909 19.99 21.1309 20.37C20.4709 20.75 19.9309 21.31 19.5109 22.05C19.1109 22.77 18.9109 23.63 18.9109 24.63C18.9109 25.63 19.1109 26.51 19.5109 27.27C19.9309 28.01 20.4709 28.58 21.1309 28.98C21.8109 29.38 22.5309 29.58 23.2909 29.58C24.0709 29.58 24.8009 29.39 25.4809 29.01C26.1609 28.61 26.7009 28.05 27.1009 27.33C27.5009 26.59 27.7009 25.71 27.7009 24.69Z" fill="#1F2937"/>
<path d="M45.2129 33L41.7929 27.84L38.7629 33H34.2629L39.6929 24.66L34.2029 16.38H38.9429L42.3329 21.51L45.3929 16.38H49.8929L44.4329 24.66L49.9529 33H45.2129Z" fill="#1F2937"/>
<path d="M54.3641 14.4C53.6241 14.4 53.0041 14.17 52.5041 13.71C52.0241 13.23 51.7841 12.64 51.7841 11.94C51.7841 11.24 52.0241 10.66 52.5041 10.2C53.0041 9.71998 53.6241 9.47998 54.3641 9.47998C55.1041 9.47998 55.7141 9.71998 56.1941 10.2C56.6941 10.66 56.9441 11.24 56.9441 11.94C56.9441 12.64 56.6941 13.23 56.1941 13.71C55.7141 14.17 55.1041 14.4 54.3641 14.4ZM56.4341 16.38V33H52.2341V16.38H56.4341Z" fill="#1F2937"/>
<path d="M19.5 34.5L21.5 34L26.05 26.2632L30.725 26.2632C31.4305 26.2632 32.5 25.699 32.5 25C32.5 24.3011 31.4305 23.7369 30.725 23.7369L26.05 23.7369L21.5 16L19.5 16L22.225 23.7369L17.55 23.7369L16.275 22.0527L14.5 22L16.275 25L14.5 28L16.275 27.9474L17.55 26.2632L22.225 26.2632L19.5 34.5Z" fill="#FF8A4C"/>
</svg>
