<svg width="127" height="46" viewBox="0 0 127 46" fill="none" xmlns="http://www.w3.org/2000/svg">
<path d="M49 0.93959C49 0.420669 49.4207 0 49.9396 0L76.0602 0C76.5791 0 76.9998 0.420669 76.9998 0.93959V0.93959L49 0.93959V0.93959Z" fill="#D30511"/>
<rect x="76.0605" y="0.939514" width="0.93959" height="1.69126" fill="#D30511"/>
<rect x="49" y="0.939514" width="0.93959" height="1.69126" fill="#D30511"/>
<path d="M60.9326 3.57031H61.8722V25.1809C61.8722 25.6998 61.4515 26.1205 60.9326 26.1205V26.1205V3.57031Z" fill="#D30511"/>
<path d="M64.1274 3.57031H65.067V26.1205V26.1205C64.5481 26.1205 64.1274 25.6998 64.1274 25.1809V3.57031Z" fill="#D30511"/>
<path d="M64.1274 3.57031H65.067V26.1205V26.1205C64.5481 26.1205 64.1274 25.6998 64.1274 25.1809V3.57031Z" fill="#D30511"/>
<path d="M51.5371 3.94623H52.4767V6.20124V6.20124C51.9578 6.20124 51.5371 5.78058 51.5371 5.26165V3.94623Z" fill="#D30511"/>
<rect x="59.3354" y="26.1205" width="0.93959" height="1.69126" transform="rotate(-90 59.3354 26.1205)" fill="#D30511"/>
<rect x="64.7852" y="26.1205" width="0.93959" height="1.78522" transform="rotate(-90 64.7852 26.1205)" fill="#D30511"/>
<path d="M52.4775 6.20123L52.4775 5.26164L58.5849 5.26164C59.1038 5.26164 59.5245 5.68231 59.5245 6.20123V6.20123L52.4775 6.20123Z" fill="#D30511"/>
<path d="M51.5371 3.94623H52.4767V6.20124V6.20124C51.9578 6.20124 51.5371 5.78058 51.5371 5.26165V3.94623Z" fill="#D30511"/>
<path d="M52.4775 6.20123L52.4775 5.26164L58.5849 5.26164C59.1038 5.26164 59.5245 5.68231 59.5245 6.20123V6.20123L52.4775 6.20123Z" fill="#D30511"/>
<path d="M49 1.31525H49.9396V3.57026V3.57026C49.4207 3.57026 49 3.14959 49 2.63067V1.31525Z" fill="#D30511"/>
<path d="M49.9395 3.57031L49.9395 2.63072L60.9327 2.63072C61.4516 2.63072 61.8722 3.05139 61.8722 3.57031V3.57031L49.9395 3.57031Z" fill="#D30511"/>
<path d="M76.0605 1.31525H77.0001V2.63067C77.0001 3.14959 76.5795 3.57026 76.0605 3.57026V3.57026V1.31525Z" fill="#D30511"/>
<path d="M64.1274 3.57031V3.57031C64.1274 3.05139 64.5481 2.63072 65.067 2.63072L76.0602 2.63072L76.0602 3.57031L64.1274 3.57031Z" fill="#D30511"/>
<path d="M59.522 26.1205V26.1205C59.0031 26.1205 58.5824 25.6998 58.5824 25.1809L58.5824 6.20118L59.522 6.20118L59.522 26.1205Z" fill="#D30511"/>
<path d="M67.4165 25.1809C67.4165 25.6998 66.9958 26.1205 66.4769 26.1205V26.1205L66.4769 6.20118L67.4165 6.20118L67.4165 25.1809Z" fill="#D30511"/>
<path d="M66.4771 6.20123V6.20123C66.4771 5.68231 66.8977 5.26164 67.4166 5.26164L73.524 5.26164L73.524 6.20123L66.4771 6.20123Z" fill="#D30511"/>
<path d="M73.5234 3.94623H74.463V5.26165C74.463 5.78057 74.0424 6.20124 73.5234 6.20124V6.20124V3.94623Z" fill="#D30511"/>
<g filter="url(#filter0_d_206_101)">
<path d="M14.5938 29.75V30.9219H8.96875V41H7.5625V30.9219H1.9375V29.75H14.5938ZM25.8511 29.5156C26.7104 29.5156 27.4331 29.5693 28.019 29.6768C28.6099 29.7793 29.0957 29.938 29.4766 30.1528C29.8574 30.3628 30.1504 30.6289 30.3555 30.9512C30.5605 31.2734 30.7095 31.6519 30.8022 32.0864C30.8999 32.521 30.9561 33.0117 30.9707 33.5586C30.9902 34.1055 31 34.7109 31 35.375C31 36.0391 30.9902 36.6445 30.9707 37.1914C30.9561 37.7383 30.8999 38.229 30.8022 38.6636C30.7095 39.0981 30.5605 39.4766 30.3555 39.7988C30.1504 40.1211 29.8574 40.3896 29.4766 40.6045C29.0957 40.8145 28.6099 40.9707 28.019 41.0732C27.4331 41.1807 26.7104 41.2344 25.8511 41.2344H21.6177C20.7583 41.2344 20.0332 41.1807 19.4424 41.0732C18.8564 40.9707 18.373 40.8145 17.9922 40.6045C17.6113 40.3896 17.3159 40.1211 17.106 39.7988C16.9009 39.4766 16.7495 39.0981 16.6519 38.6636C16.5591 38.229 16.5054 37.7383 16.4907 37.1914C16.4761 36.6445 16.4688 36.0391 16.4688 35.375C16.4688 34.7109 16.4761 34.1055 16.4907 33.5586C16.5054 33.0117 16.5591 32.521 16.6519 32.0864C16.7495 31.6519 16.9009 31.2734 17.106 30.9512C17.3159 30.6289 17.6113 30.3628 17.9922 30.1528C18.373 29.938 18.8564 29.7793 19.4424 29.6768C20.0332 29.5693 20.7583 29.5156 21.6177 29.5156H25.8511ZM25.8511 40.0625C26.4712 40.0625 26.9937 40.0454 27.4185 40.0112C27.8481 39.9722 28.2021 39.8965 28.4805 39.7842C28.7588 39.6719 28.9736 39.5107 29.125 39.3008C29.2764 39.0908 29.3862 38.8125 29.4546 38.4658C29.5229 38.1191 29.562 37.6943 29.5718 37.1914C29.5864 36.6836 29.5938 36.0781 29.5938 35.375C29.5938 34.6719 29.5864 34.0688 29.5718 33.5659C29.562 33.0581 29.5229 32.6309 29.4546 32.2842C29.3862 31.9375 29.2764 31.6592 29.125 31.4492C28.9736 31.2393 28.7588 31.0781 28.4805 30.9658C28.207 30.8535 27.8555 30.7803 27.4258 30.7461C27.001 30.707 26.4761 30.6875 25.8511 30.6875H21.6177C20.9927 30.6875 20.4653 30.707 20.0356 30.7461C19.6108 30.7803 19.2593 30.8535 18.981 30.9658C18.7026 31.0781 18.4878 31.2393 18.3364 31.4492C18.1851 31.6592 18.0752 31.9375 18.0068 32.2842C17.9385 32.6309 17.8994 33.0581 17.8896 33.5659C17.8799 34.0688 17.875 34.6719 17.875 35.375C17.875 36.0781 17.8799 36.6836 17.8896 37.1914C17.9043 37.6943 17.9458 38.1191 18.0142 38.4658C18.0825 38.8125 18.1899 39.0908 18.3364 39.3008C18.4878 39.5107 18.7026 39.6719 18.981 39.7842C19.2593 39.8965 19.6108 39.9722 20.0356 40.0112C20.4653 40.0454 20.9927 40.0625 21.6177 40.0625H25.8511ZM33.3438 29.75H41.7959C42.4941 29.75 43.0825 29.7817 43.561 29.8452C44.0444 29.9038 44.4424 29.9941 44.7549 30.1162C45.0674 30.2383 45.3066 30.3896 45.4727 30.5703C45.6436 30.751 45.7681 30.9634 45.8462 31.2075C45.9243 31.4517 45.9683 31.7251 45.978 32.0278C45.9927 32.3306 46 32.665 46 33.0312C46 33.4121 45.9902 33.7637 45.9707 34.0859C45.9561 34.4082 45.8999 34.7012 45.8022 34.9648C45.7095 35.2236 45.5581 35.4531 45.3481 35.6533C45.1431 35.8486 44.8477 36.0122 44.4619 36.144C44.0811 36.2759 43.5952 36.376 43.0044 36.4443C42.4185 36.5127 41.6958 36.5469 40.8364 36.5469H34.75V41H33.3438V29.75ZM34.75 35.375H40.8364C41.4614 35.375 41.9863 35.3652 42.4111 35.3457C42.8408 35.3213 43.1948 35.2798 43.4731 35.2212C43.7515 35.1626 43.9663 35.0796 44.1177 34.9722C44.269 34.8647 44.3789 34.7231 44.4473 34.5474C44.5205 34.3716 44.562 34.1616 44.5718 33.9175C44.5864 33.6685 44.5938 33.373 44.5938 33.0312C44.5938 32.7139 44.5864 32.4404 44.5718 32.2109C44.562 31.9814 44.5205 31.7886 44.4473 31.6323C44.3789 31.4761 44.269 31.3516 44.1177 31.2588C43.9663 31.166 43.7515 31.0952 43.4731 31.0464C43.1948 30.9927 42.8408 30.9585 42.4111 30.9438C41.9863 30.9292 41.4614 30.9219 40.8364 30.9219H34.75V35.375ZM60.0625 29.75V30.9219H54.4375V41H53.0312V30.9219H47.4062V29.75H60.0625ZM75.2969 41H73.8906V38.8906C73.8906 38.5488 73.8833 38.2559 73.8687 38.0117C73.8589 37.7627 73.8174 37.5503 73.7441 37.3745C73.6758 37.1987 73.5659 37.0571 73.4146 36.9497C73.2632 36.8423 73.0483 36.7593 72.77 36.7007C72.4917 36.6421 72.1377 36.603 71.708 36.5835C71.2832 36.5591 70.7583 36.5469 70.1333 36.5469H63.8125V41H62.4062V29.75H70.3677C71.2271 29.75 71.9497 29.7817 72.5356 29.8452C73.1265 29.9038 73.6123 29.9941 73.9932 30.1162C74.3789 30.2383 74.6743 30.3896 74.8794 30.5703C75.0894 30.751 75.2407 30.9634 75.3335 31.2075C75.4312 31.4517 75.4873 31.7251 75.502 32.0278C75.5215 32.3306 75.5312 32.665 75.5312 33.0312C75.5312 33.5 75.4971 33.9126 75.4287 34.269C75.3652 34.6206 75.2554 34.9209 75.0991 35.1699C74.9429 35.4189 74.7354 35.6191 74.4766 35.7705C74.2178 35.917 73.8931 36.0195 73.5024 36.0781C73.8931 36.1367 74.2056 36.2393 74.4399 36.3857C74.6743 36.5322 74.855 36.7227 74.9819 36.957C75.1089 37.1914 75.1919 37.4697 75.231 37.792C75.2749 38.1143 75.2969 38.4805 75.2969 38.8906V41ZM63.8125 35.375H70.3677C70.9927 35.375 71.5176 35.3652 71.9424 35.3457C72.3721 35.3213 72.7261 35.2798 73.0044 35.2212C73.2827 35.1626 73.4976 35.0796 73.6489 34.9722C73.8003 34.8647 73.9102 34.7231 73.9785 34.5474C74.0518 34.3716 74.0933 34.1616 74.103 33.9175C74.1177 33.6685 74.125 33.373 74.125 33.0312C74.125 32.7139 74.1177 32.4404 74.103 32.2109C74.0933 31.9814 74.0518 31.7886 73.9785 31.6323C73.9102 31.4761 73.8003 31.3516 73.6489 31.2588C73.4976 31.166 73.2827 31.0952 73.0044 31.0464C72.7261 30.9927 72.3721 30.9585 71.9424 30.9438C71.5176 30.9292 70.9927 30.9219 70.3677 30.9219H63.8125V35.375ZM88.8906 38.4219H79.9844L78.5781 41H76.9375L83.5 29.75H85.375L91.9375 41H90.2969L88.8906 38.4219ZM88.1875 37.25L84.4375 30.6875L80.6875 37.25H88.1875ZM95.2188 41H93.8125V29.75H96.2808L106.593 39.5938V29.75H108V41H106.125L95.2188 30.9219V41ZM117.909 34.6719C118.681 34.6719 119.342 34.7036 119.894 34.7671C120.446 34.8306 120.91 34.9258 121.286 35.0527C121.667 35.1748 121.969 35.3286 122.194 35.5142C122.418 35.6997 122.592 35.9121 122.714 36.1514C122.836 36.3857 122.914 36.6494 122.948 36.9424C122.987 37.2354 123.007 37.5527 123.007 37.8945C123.007 38.2363 122.975 38.5586 122.912 38.8613C122.853 39.1592 122.746 39.4326 122.589 39.6816C122.433 39.9307 122.221 40.1528 121.952 40.3481C121.684 40.5435 121.342 40.7095 120.927 40.8462C120.512 40.9829 120.011 41.0854 119.425 41.1538C118.844 41.2271 118.163 41.2637 117.382 41.2637H115.507C114.804 41.2637 114.188 41.2368 113.661 41.1831C113.134 41.1294 112.68 41.0488 112.299 40.9414C111.918 40.8291 111.603 40.6899 111.354 40.5239C111.105 40.353 110.905 40.1553 110.753 39.9307C110.607 39.7012 110.504 39.4424 110.446 39.1543C110.387 38.8613 110.358 38.5391 110.358 38.1875H111.764C111.764 38.627 111.828 38.9712 111.955 39.2202C112.082 39.4692 112.292 39.6572 112.584 39.7842C112.877 39.9062 113.261 39.9844 113.734 40.0186C114.213 40.0479 114.804 40.0625 115.507 40.0625H117.382C118.202 40.0625 118.883 40.0234 119.425 39.9453C119.967 39.8672 120.399 39.7427 120.722 39.5718C121.044 39.4009 121.271 39.1787 121.403 38.9053C121.535 38.627 121.601 38.29 121.601 37.8945C121.601 37.499 121.554 37.1694 121.461 36.9058C121.374 36.6421 121.195 36.4321 120.927 36.2759C120.663 36.1196 120.29 36.0098 119.806 35.9463C119.323 35.8779 118.69 35.8438 117.909 35.8438H115.976C115.116 35.8438 114.379 35.812 113.764 35.7485C113.153 35.6851 112.641 35.5947 112.226 35.4775C111.811 35.3555 111.479 35.2065 111.229 35.0308C110.98 34.8501 110.79 34.645 110.658 34.4155C110.531 34.186 110.448 33.9321 110.409 33.6538C110.37 33.3706 110.351 33.0654 110.351 32.7383C110.351 32.3965 110.38 32.0791 110.438 31.7861C110.502 31.4932 110.617 31.2295 110.783 30.9951C110.949 30.7559 111.176 30.5435 111.464 30.3579C111.752 30.1724 112.121 30.0186 112.57 29.8965C113.024 29.7695 113.568 29.6743 114.203 29.6108C114.838 29.5474 115.585 29.5156 116.444 29.5156H117.851C118.554 29.5156 119.169 29.5425 119.696 29.5962C120.224 29.645 120.678 29.7256 121.059 29.8379C121.439 29.9453 121.754 30.082 122.003 30.248C122.257 30.4092 122.458 30.6045 122.604 30.834C122.755 31.0586 122.86 31.3149 122.919 31.603C122.978 31.8911 123.007 32.2109 123.007 32.5625H121.601C121.601 32.123 121.537 31.7788 121.41 31.5298C121.283 31.2808 121.073 31.0952 120.78 30.9731C120.487 30.8462 120.102 30.7681 119.623 30.7388C119.145 30.7046 118.554 30.6875 117.851 30.6875H116.444C115.507 30.6875 114.735 30.7217 114.13 30.79C113.524 30.8535 113.046 30.9634 112.694 31.1196C112.343 31.2759 112.099 31.4858 111.962 31.7495C111.825 32.0132 111.757 32.3428 111.757 32.7383C111.757 32.9824 111.774 33.1997 111.808 33.3901C111.842 33.5806 111.911 33.749 112.013 33.8955C112.121 34.0371 112.27 34.1567 112.46 34.2544C112.65 34.3521 112.902 34.4326 113.214 34.4961C113.527 34.5596 113.908 34.606 114.357 34.6353C114.811 34.6597 115.351 34.6719 115.976 34.6719H117.909Z" fill="black"/>
</g>
<defs>
<filter id="filter0_d_206_101" x="0.9375" y="29.5156" width="125.069" height="15.748" filterUnits="userSpaceOnUse" color-interpolation-filters="sRGB">
<feFlood flood-opacity="0" result="BackgroundImageFix"/>
<feColorMatrix in="SourceAlpha" type="matrix" values="0 0 0 0 0 0 0 0 0 0 0 0 0 0 0 0 0 0 127 0" result="hardAlpha"/>
<feOffset dx="1" dy="2"/>
<feGaussianBlur stdDeviation="1"/>
<feComposite in2="hardAlpha" operator="out"/>
<feColorMatrix type="matrix" values="0 0 0 0 0 0 0 0 0 0 0 0 0 0 0 0 0 0 0.3 0"/>
<feBlend mode="normal" in2="BackgroundImageFix" result="effect1_dropShadow_206_101"/>
<feBlend mode="normal" in="SourceGraphic" in2="effect1_dropShadow_206_101" result="shape"/>
</filter>
</defs>
</svg>
